<?xml version="1.0" encoding="UTF-8"?>
<svg id="Layer_1" data-name="Layer 1" xmlns="http://www.w3.org/2000/svg" viewBox="0 0 249.42 251.3">
  <defs>
    <style>
      .cls-1 {
        fill: #fff;
      }

      .cls-2 {
        fill: #0d1016;
      }
    </style>
  </defs>
  <path d="m124.68.05c-7.93-.02-15.86-.36-23.63,1.9-4.16,1.21-8.5,1.84-12.67,3.05-4.44,1.3-8.87,2.74-13.13,4.54-11,4.64-20.98,10.98-30.25,18.51-8.79,7.14-16.28,15.45-22.74,24.7-5.12,7.32-9.63,15.02-12.81,23.39-2.02,5.33-3.81,10.76-5.46,16.21-1.01,3.35-1.7,6.81-2.3,10.27-.66,3.78-1.54,7.62-1.48,11.42.2,11.96-1.35,24.02,1.84,35.85.95,3.53,1.2,7.27,2.3,10.75,1.74,5.48,3.79,10.88,5.94,16.22,4.72,11.69,11.63,22.09,19.76,31.61,6.91,8.09,14.8,15.16,23.67,21.15,8.16,5.51,16.65,10.37,25.93,13.68,5.58,1.99,11.28,3.72,17.04,5.1,5.26,1.26,10.65,2.41,16.03,2.69,8.1.42,16.24.13,24.35-.05,3.08-.07,6.18-.55,9.23-1.08,2.46-.43,4.86-1.24,7.29-1.85,3.03-.75,6.17-1.2,9.08-2.26,5.54-2.02,11.04-4.18,16.39-6.64,10.58-4.86,20.14-11.4,28.78-19.13,10.63-9.5,19.48-20.52,26.2-33.14,2.5-4.69,4.97-9.45,6.79-14.42,2.2-6.01,3.84-12.24,5.43-18.45,1.18-4.62,2.44-9.34,2.69-14.07.48-9.01.69-18.09.2-27.09-.34-6.18-1.65-12.39-3.28-18.39-1.84-6.78-3.99-13.57-6.95-19.91-3.63-7.77-7.84-15.35-12.6-22.48-2.54-3.81-3.81-7.23-2.67-11.57.03-.12.04-.25.05-.37.24-3.49-2.33-5.37-5.56-4.46-2.41.68-4.69.61-7.03-1.36-6.6-5.57-13.22-11.2-20.41-15.95-13.53-8.95-28.65-14.23-44.54-17.22-3.8-.72-7.72-.89-11.6-1.09-3.28-.17-6.58-.04-9.87-.04Z"/>
  <path class="cls-1" d="m124.68.05c3.29,0,6.59-.14,9.87.04,3.88.21,7.8.38,11.6,1.09,15.89,2.99,31.01,8.27,44.54,17.22,7.18,4.75,13.81,10.38,20.41,15.95,2.34,1.97,4.62,2.04,7.03,1.36,3.23-.9,5.8.97,5.56,4.46,0,.12-.01.25-.05.37-1.14,4.34.12,7.75,2.67,11.57,4.76,7.13,8.97,14.71,12.6,22.48,2.96,6.34,5.12,13.14,6.95,19.91,1.63,5.99,2.94,12.21,3.28,18.39.5,9,.28,18.08-.2,27.09-.25,4.73-1.51,9.44-2.69,14.07-1.59,6.21-3.23,12.44-5.43,18.45-1.82,4.97-4.29,9.73-6.79,14.42-6.72,12.61-15.57,23.64-26.2,33.14-8.65,7.73-18.21,14.27-28.78,19.13-5.35,2.46-10.85,4.62-16.39,6.64-2.91,1.06-6.05,1.51-9.08,2.26-2.43.61-4.83,1.42-7.29,1.85-3.05.53-6.14,1.02-9.23,1.08-8.12.18-16.26.47-24.35.05-5.38-.28-10.77-1.43-16.03-2.69-5.76-1.38-11.46-3.11-17.04-5.1-9.28-3.3-17.77-8.17-25.93-13.68-8.87-5.98-16.76-13.05-23.67-21.15-8.13-9.53-15.04-19.92-19.76-31.61-2.15-5.34-4.2-10.73-5.94-16.22-1.1-3.48-1.35-7.21-2.3-10.75-3.19-11.83-1.65-23.89-1.84-35.85-.06-3.8.82-7.64,1.48-11.42.6-3.45,1.29-6.92,2.3-10.27,1.65-5.46,3.44-10.88,5.46-16.21,3.18-8.37,7.7-16.07,12.81-23.39,6.46-9.25,13.95-17.56,22.74-24.7,9.27-7.53,19.25-13.87,30.25-18.51,4.26-1.8,8.69-3.24,13.13-4.54,4.16-1.22,8.5-1.84,12.67-3.05C108.82-.31,116.75.03,124.68.05Zm112.39,125.91c.15-.01.3-.02.45-.03-.5-7.09-.93-14.19-1.54-21.27-.18-2.16-.77-4.29-1.32-6.4-.61-2.35-1.3-4.68-2.11-6.97-1.38-3.87-2.87-7.7-4.37-11.53-.05-.12-.84-.14-.88-.05-1.06,2.62-2.17,5.22-3.07,7.9-1.3,3.82-2.48,7.69-3.66,11.55-.87,2.85-1.63,5.74-2.47,8.6-.14.48-.32,1.17-.67,1.31-.38.16-1.11-.06-1.45-.37-1.11-1-2.25-2.02-3.15-3.2-3.83-5.02-7.43-10.22-11.41-15.12-2.12-2.61-2.86-5.67-3.21-8.64-.59-4.97,0-9.93,3.91-13.78.26-.25.36-.65.57-.96.69-1.01,1.28-2.12,2.11-2.99,1.58-1.64,3.49-2.99,4.93-4.74,1.73-2.12,2.83-4.81,4.72-6.75,2.62-2.69,4.33-5.75,5.22-9.28.35-1.38.07-2.92.08-4.38-1.01.11-2.02.2-3.02.33-.54.07-1.06.21-1.59.31-6.79,1.32-13.08,4.03-19.11,7.28-5.16,2.79-10.21,5.86-15.03,9.2-4.65,3.22-8.94,6.96-13.39,10.47-.57.45-1.17.85-1.75,1.27-.25-.83-.67-1.66-.7-2.5-.02-.56.44-1.23.85-1.69.97-1.08,2.09-2.04,3.05-3.13.17-.19,0-1.05-.19-1.13-3.25-1.29-6.45-2.8-9.81-3.67-4.27-1.11-8.67-2.27-13.03-2.35-5.69-.1-11.5-1.16-17.15.8-2.26.78-4.64,1.27-6.97,1.83-1.9.46-3.81.92-5.74,1.17-.46.06-1.03-.68-1.55-1.05.41-.31.89-.55,1.21-.94.51-.62,1.4-1.81,1.28-1.93-4.14-4.28-8.03-8.91-12.68-12.56-6.23-4.88-12.62-9.74-20.37-12.19-4.46-1.41-8.44-4.23-13.37-4.31-2.69-.05-2.93.8-2.15,3.48.7,2.4,2.19,4.56,3.52,6.36,3.4,4.6,7.53,8.71,11.67,12.69,3.73,3.58,8.03,6.57,11.81,10.11,4.47,4.2,4.55,9.82,3.02,15.08-.97,3.35-3.49,6.34-5.64,9.25-1.39,1.88-3.25,3.46-5.11,4.92-2.94,2.31-6.01,4.46-9.13,6.53-.72.48-1.88.54-2.77.39-.36-.06-.83-1.21-.76-1.82.16-1.5.74-2.95.91-4.45.54-4.67-2.93-7.94-4.45-11.89-1.58-4.12-4.44-7.73-6.2-11.8-1.24-2.86-2.22-6.11-2.19-9.18.08-6.77-1.19-13.62.77-20.33.15-.53-.18-1.31-.53-1.81-.12-.17-1.11.02-1.49.32-1.94,1.54-3.79,3.18-5.7,4.76-2.57,2.13-5.26,4.13-7.73,6.37-2.89,2.62-5.66,5.38-8.36,8.2-1.18,1.23-2.07,2.75-3.08,4.14-1.06,1.46-2.07,2.96-3.17,4.39-1.25,1.63-2.67,3.14-3.83,4.84-.7,1.03-.98,2.34-1.6,3.44-.36.64-1.18,1.03-1.49,1.67-1.53,3.16-2.96,6.37-4.42,9.57-1.5,3.29-3.23,6.51-4.42,9.92-1.06,3.01-1.58,6.21-2.22,9.35-.68,3.33-1.21,6.68-1.81,10.03-.08.45-.14.9-.23,1.34-.59,2.8-1.73,5.6-1.68,8.38.12,6.27-.36,12.51.61,18.86.81,5.28,1.86,10.43,3.18,15.57.37,1.43.74,2.85,1.1,4.28.81,3.19,1.3,6.51,2.48,9.56,1.34,3.48,3.31,6.72,4.96,10.08,3.4,6.92,7.54,13.35,12.45,19.28.5.61,1.32.97,1.79,1.59.77,1.03,1.21,2.34,2.07,3.26,2.47,2.62,5.08,5.12,7.65,7.64,1.27,1.25,2.53,2.54,3.92,3.63,3.52,2.75,7.03,5.53,10.7,8.06,2.57,1.78,5.37,3.25,8.15,4.71,2.89,1.53,5.86,2.9,8.81,4.3,1.99.94,3.94,2.04,6.03,2.68,2.97.9,6.08,1.34,9.08,2.16,3.23.88,6.35,2.37,9.62,2.88,4.63.72,9.35.89,14.04,1.11,3.58.16,7.17.16,10.75,0,5.31-.23,10.61-.66,15.92-1.02.24-.02.49-.1.73-.17,2.78-.9,5.54-1.89,8.35-2.68,4.08-1.15,8.31-1.84,12.27-3.31,3.78-1.4,7.3-3.5,10.89-5.38,2.38-1.25,4.71-2.6,7.02-3.99,1.23-.74,2.36-1.65,3.51-2.52,2.83-2.16,5.49-4.59,8.5-6.46,4.18-2.59,7.29-6.02,9.29-10.39,1.43-3.11,2.45-6.41,3.61-9.64.62-1.72,1.43-3.44,1.67-5.23.42-3.18.46-6.41.69-9.62.03-.48.29-.95.35-1.43.19-1.45.6-2.93.44-4.34-.38-3.43-.94-6.84-1.6-10.23-.49-2.51-.89-5.13-1.96-7.4-1.71-3.62-4.19-6.88-5.91-10.5-1.56-3.28-3.96-5.56-6.79-7.61-2.03-1.47-3.83-1.24-5.49.39-1.84,1.8-3.7,3.63-5.29,5.65-3.82,4.84-9.25,7.33-14.43,10.19-.49.27-1.35-.13-2.04-.21.46-.71.81-1.54,1.41-2.1,1.87-1.76,3.94-3.33,5.69-5.2.41-.45.13-1.97-.31-2.71-1.7-2.86-3.98-5.43-5.33-8.43-1.72-3.79-2.39-8.07-4.16-11.82-3.45-7.3-8.94-9.51-16.79-6.74-3.26,1.15-4.48,3.88-4.68,6.96-.21,3.22.68,6.17,3.23,8.5,2.28,2.08,4.5,4.23,6.52,6.55,1.16,1.33,1.97,3.01,2.74,4.63,1.84,3.86,1.72,8.05,1.32,12.1-.16,1.63-1.53,3.81-2.95,4.49-2.33,1.13-5.14,1.58-7.77,1.71-4.86.25-9.74.18-14.6-.04-.95-.04-2.44-1.2-2.64-2.09-.6-2.58-.63-5.29-.96-7.94-.22-1.76.75-2.69,2.02-3.67,2.03-1.55,4.06-3.17,5.8-5.04,2.23-2.38,1.08-6.32-2.03-7.01-3.05-.68-5.99-2.59-9.32-1.18-1.43.61-3.08.95-4.23,1.9-1.25,1.03-2.86,2.33-1.85,4.44,1.5,3.13,3.35,5.93,6.66,7.48.45.21.91.93.93,1.43.09,2.54.1,5.08.02,7.62-.06,1.79-3.23,4.43-4.77,4.08-2.47-.55-4.94-1.12-7.42-1.64-.37-.08-.77.03-1.16.06.28.25.55.52.85.74,1.18.86,2.36,1.74,3.57,2.55.39.26,1.08.6,1.35.43,4.63-2.72,9.25-3.45,14.02-.31,1.33.88,1.92,1.85.79,3.14-2.3,2.62-4.65,5.18-7.1,7.65-.46.46-1.55.67-2.2.48-1.52-.44-3.37-.83-4.33-1.91-1.52-1.71-2.37-4-3.64-5.95-.27-.41-1.18-.75-1.66-.62-2.69.72-5.35,2.33-8.01,2.28-6.85-.11-13.48.81-20.09,2.44-4.13,1.01-8.24,2.29-12.59,1.69-.52-.07-1.01-.38-1.51-.57.36-.46.62-1.08,1.09-1.34.9-.49,1.92-.77,2.88-1.14,2.23-.86,4.48-1.66,6.66-2.63,1.17-.52,1.18-1.27-.09-1.85-1.56-.72-3.09-1.48-4.63-2.24-3.77-1.89-4.92-5.84-7.04-9.03-.1-.15-.14-.44-.07-.61.25-.59.46-1.25.89-1.68.14-.14.95.34,1.4.62.7.44,1.34.99,2.03,1.44,2.94,1.92,6,3.51,9.57,3.99,3.83.51,7.62,1.39,11.45,1.73,4.22.37,8.48.3,12.73.44.68.02,1.36.1,2.04.16-.49-.35-1.01-.68-1.46-1.07-.79-.68-1.49-1.48-2.32-2.08-3.52-2.55-4.62-5.88-4.39-10.23.19-3.53,1.88-5.77,4.11-8,3.44-3.44,6.86-6.91,10.26-10.39.22-.22.2-.67.29-1.01-.32.09-.69.1-.94.28-.83.62-1.65,1.27-2.41,1.98-1.35,1.26-6.85,2.06-8.22.87-1.47-1.28-3.18-2.74-3.75-4.46-.72-2.15-.3-4.3,1.81-6.3,3.82-3.62,7.66-4.02,11.43-.29.56.56,1.06,1.18,1.61,1.74.18.19.45.3.67.44.08-.26.31-.66.21-.77-1.01-1.21-1.98-2.46-3.14-3.52-.68-.62-1.77-.76-2.48-1.35-1.72-1.43-6.96-1.71-8.54-.11-2.76,2.8-6.12,5.11-7.24,9.29-.9,3.37-2.58,6.57-3.24,9.97-.53,2.73-1.68,4.82-3.37,6.89-.5.61-.45,2.37.07,2.98,1.45,1.69,3.32,3,4.93,4.56.51.49.71,1.3,1.06,1.96-.73.06-1.61.42-2.15.13-2.23-1.18-4.69-2.22-6.46-3.94-4.24-4.11-8.16-8.56-12.17-12.91-3.79-4.11-6.15-9.13-8.42-14.12-1.82-4.01-3.19-8.22-4.64-12.39-.56-1.63-.84-3.37-1.11-5.08-.07-.46.24-1.28.6-1.44.36-.16,1.09.18,1.49.5.99.82,1.77,1.96,2.85,2.6,3.44,2.05,6.82,4.4,10.54,5.75,3.08,1.12,6.64.4,9.46-1.45,5.56-3.66,10.86-7.72,16.39-11.42,1.87-1.25,4.05-2.33,6.23-2.74,2.45-.47,5.07-.22,7.6-.08,3.03.16,5.85,3.34,5.85,6.37,0,2.96-.02,5.92.05,8.87,0,.29.87.83.87.82,2.55-2.74,5.89-1.95,9.04-2.19,1.98-.15,3.45.36,4.72,1.85.4.47,1.15.65,1.74.96.18-.65.54-1.31.51-1.94-.22-4.27.77-7.9,4.19-10.9,3.64-3.19,10.64-4.39,14.58-1.54,4.94,3.57,9.66,7.44,14.32,11.37,4.13,3.48,8.13,7.09,13.35,8.95,2.22.79,4.34,1.95,6.6,2.57,3.85,1.07,7.75,2.4,11.68,2.6,4.99.25,10.04-.5,15.06-.88,1.09-.08,2.16-.64,3.23-.64,1.31,0,3.73.23,3.76.55.22,2.23.47,4.71-.29,6.72-1.5,3.95-3.37,7.82-5.64,11.37-1.56,2.44-3.83,4.59-6.19,6.31-2.72,1.98-3.44,2.94-2.33,5.82,1.87,4.84,3,9.75,2.78,15.02-.24,5.78.09,11.58-.12,17.37-.1,2.72-.74,5.46-1.43,8.12-.5,1.95-1.5,3.78-2.23,5.68-.14.38-.05.84-.07,1.26.21-.34.41-.69.62-1.03.4-.67.7-1.42,1.2-2.01,1.48-1.76,3.31-3.29,4.52-5.21,2.26-3.61,4.23-7.41,6.19-11.19,1.03-1.98,1.78-4.1,2.69-6.14,1.49-3.33,3.25-6.57,4.45-10,1.12-3.22,1.75-6.61,2.41-9.97.98-5.01,2.02-10.03,2.59-15.09.41-3.62.08-7.32.08-10.99Zm-39.38-85.25c-.13-.19-.18-.31-.26-.4-2.67-2.62-5.05-5.67-8.09-7.74-4.19-2.86-8.84-5.04-13.36-7.4-3.74-1.95-7.52-3.85-11.38-5.54-1.92-.84-4.07-1.12-6.11-1.68-2.25-.62-4.48-1.34-6.75-1.86-2.13-.49-4.3-.77-6.45-1.18-3.02-.58-6.04-1.77-9.03-1.69-8.42.21-16.89-1.21-25.27.79-2.81.67-5.76.71-8.63,1.15-1.87.28-3.73.67-5.55,1.16-3.46.95-6.89,2-10.34,3.02-.43.13-.89.26-1.26.5-.24.15-.33.52-.49.79.24.13.47.29.72.39,1.4.61,2.85,1.1,4.18,1.82,3.42,1.87,6.88,3.7,10.15,5.81,4.18,2.7,8.46,5.35,12.22,8.58,4.24,3.65,7.89,7.98,11.93,11.88.72.7,2.12,1.05,3.18.99,3.98-.23,7.94-.98,11.91-.99,4.33,0,8.69.33,12.97.99,4.65.72,9.28,1.79,13.8,3.11,2.38.69,4.48,2.28,6.75,3.38.33.16.98.02,1.3-.22,2.97-2.21,5.79-4.66,8.89-6.67,4.7-3.04,9.59-5.78,14.41-8.65.19-.11.37-.24.56-.36Zm-110.43,123.75c-.07.08-.14.15-.21.23.06.03.14.09.18.07.09-.05.16-.13.24-.2-.06-.03-.12-.06-.21-.1Z"/>
  <path class="cls-2" d="m237.07,125.96c0,3.67.33,7.37-.08,10.99-.57,5.06-1.61,10.08-2.59,15.09-.66,3.36-1.29,6.76-2.41,9.97-1.19,3.43-2.96,6.67-4.45,10-.91,2.04-1.66,4.16-2.69,6.14-1.97,3.78-3.94,7.58-6.19,11.19-1.2,1.93-3.03,3.45-4.52,5.21-.5.59-.8,1.34-1.2,2.01-.2.35-.41.69-.62,1.03.02-.42-.07-.89.07-1.26.73-1.9,1.72-3.73,2.23-5.68.69-2.66,1.32-5.4,1.43-8.12.21-5.78-.12-11.59.12-17.37.22-5.27-.91-10.19-2.78-15.02-1.11-2.88-.39-3.83,2.33-5.82,2.36-1.72,4.63-3.87,6.19-6.31,2.27-3.55,4.14-7.43,5.64-11.37.77-2.02.51-4.5.29-6.72-.03-.32-2.45-.56-3.76-.55-1.08,0-2.14.56-3.23.64-5.02.38-10.07,1.13-15.06.88-3.93-.2-7.83-1.53-11.68-2.6-2.26-.63-4.38-1.78-6.6-2.57-5.22-1.86-9.21-5.47-13.35-8.95-4.66-3.93-9.38-7.8-14.32-11.37-3.94-2.85-10.94-1.65-14.58,1.54-3.42,3-4.41,6.63-4.19,10.9.03.64-.33,1.3-.51,1.94-.59-.31-1.34-.49-1.74-.96-1.27-1.49-2.74-1.99-4.72-1.85-3.15.23-6.49-.55-9.04,2.19,0,0-.86-.53-.87-.82-.07-2.96-.05-5.91-.05-8.87,0-3.03-2.82-6.21-5.85-6.37-2.53-.14-5.15-.39-7.6.08-2.18.42-4.36,1.49-6.23,2.74-5.53,3.7-10.83,7.75-16.39,11.42-2.82,1.86-6.38,2.57-9.46,1.45-3.72-1.35-7.1-3.7-10.54-5.75-1.08-.64-1.85-1.78-2.85-2.6-.4-.33-1.13-.66-1.49-.5-.36.16-.68.97-.6,1.44.27,1.71.55,3.45,1.11,5.08,1.44,4.17,2.82,8.38,4.64,12.39,2.27,5,4.63,10.01,8.42,14.12,4.01,4.35,7.93,8.8,12.17,12.91,1.77,1.72,4.23,2.76,6.46,3.94.54.29,1.42-.07,2.15-.13-.34-.66-.55-1.47-1.06-1.96-1.61-1.56-3.48-2.87-4.93-4.56-.52-.61-.57-2.37-.07-2.98,1.69-2.07,2.84-4.16,3.37-6.89.66-3.4,2.33-6.6,3.24-9.97,1.12-4.18,4.48-6.49,7.24-9.29,1.58-1.6,6.82-1.32,8.54.11.71.59,1.81.74,2.48,1.35,1.16,1.05,2.13,2.31,3.14,3.52.1.12-.13.51-.21.77-.23-.14-.49-.25-.67-.44-.55-.57-1.05-1.19-1.61-1.74-3.77-3.73-7.61-3.33-11.43.29-2.11,2-2.53,4.16-1.81,6.3.58,1.72,2.28,3.19,3.75,4.46,1.37,1.19,6.88.39,8.22-.87.76-.71,1.58-1.35,2.41-1.98.24-.18.62-.19.94-.28-.09.34-.08.79-.29,1.01-3.4,3.48-6.81,6.95-10.26,10.39-2.23,2.23-3.92,4.48-4.11,8-.23,4.36.87,7.68,4.39,10.23.84.61,1.53,1.41,2.32,2.08.46.39.97.71,1.46,1.07-.68-.05-1.36-.14-2.04-.16-4.24-.13-8.51-.07-12.73-.44-3.84-.34-7.63-1.22-11.45-1.73-3.57-.48-6.63-2.06-9.57-3.99-.69-.45-1.33-1-2.03-1.44-.45-.28-1.26-.76-1.4-.62-.43.42-.64,1.09-.89,1.68-.07.17-.04.45.07.61,2.12,3.19,3.26,7.14,7.04,9.03,1.53.77,3.07,1.52,4.63,2.24,1.27.59,1.26,1.33.09,1.85-2.18.97-4.44,1.77-6.66,2.63-.96.37-1.98.65-2.88,1.14-.47.25-.73.88-1.09,1.34.5.2.99.5,1.51.57,4.35.6,8.46-.67,12.59-1.69,6.6-1.62,13.24-2.54,20.09-2.44,2.65.04,5.31-1.56,8.01-2.28.48-.13,1.4.21,1.66.62,1.27,1.96,2.12,4.25,3.64,5.95.96,1.08,2.81,1.47,4.33,1.91.65.19,1.74-.02,2.2-.48,2.45-2.47,4.81-5.04,7.1-7.65,1.13-1.29.54-2.26-.79-3.14-4.77-3.14-9.39-2.4-14.02.31-.28.16-.96-.17-1.35-.43-1.22-.81-2.39-1.69-3.57-2.55-.3-.22-.57-.49-.85-.74.39-.02.79-.13,1.16-.06,2.48.52,4.95,1.09,7.42,1.64,1.53.34,4.71-2.29,4.77-4.08.08-2.54.07-5.08-.02-7.62-.02-.5-.48-1.22-.93-1.43-3.31-1.55-5.16-4.36-6.66-7.48-1.01-2.12.6-3.41,1.85-4.44,1.15-.95,2.8-1.29,4.23-1.9,3.33-1.42,6.27.5,9.32,1.18,3.11.69,4.26,4.63,2.03,7.01-1.74,1.86-3.77,3.48-5.8,5.04-1.28.98-2.24,1.9-2.02,3.67.33,2.65.37,5.36.96,7.94.2.88,1.7,2.05,2.64,2.09,4.86.22,9.75.29,14.6.04,2.64-.14,5.44-.59,7.77-1.71,1.42-.69,2.79-2.87,2.95-4.49.4-4.05.52-8.25-1.32-12.1-.77-1.62-1.59-3.3-2.74-4.63-2.02-2.32-4.24-4.48-6.52-6.55-2.55-2.32-3.44-5.28-3.23-8.5.21-3.09,1.42-5.81,4.68-6.96,7.85-2.78,13.34-.56,16.79,6.74,1.77,3.76,2.44,8.03,4.16,11.82,1.36,3,3.63,5.57,5.33,8.43.44.74.73,2.26.31,2.71-1.74,1.88-3.82,3.44-5.69,5.2-.6.56-.95,1.4-1.41,2.1.69.09,1.55.48,2.04.21,5.18-2.86,10.62-5.35,14.43-10.19,1.59-2.02,3.45-3.84,5.29-5.65,1.66-1.63,3.46-1.86,5.49-.39,2.83,2.06,5.23,4.34,6.79,7.61,1.72,3.62,4.2,6.88,5.91,10.5,1.08,2.27,1.47,4.89,1.96,7.4.66,3.39,1.22,6.8,1.6,10.23.16,1.41-.25,2.89-.44,4.34-.06.48-.32.95-.35,1.43-.23,3.21-.27,6.44-.69,9.62-.24,1.79-1.05,3.5-1.67,5.23-1.16,3.23-2.18,6.53-3.61,9.64-2.01,4.37-5.12,7.8-9.29,10.39-3.01,1.86-5.67,4.3-8.5,6.46-1.15.87-2.28,1.78-3.51,2.52-2.3,1.39-4.63,2.75-7.02,3.99-3.59,1.88-7.12,3.98-10.89,5.38-3.95,1.47-8.19,2.16-12.27,3.31-2.81.79-5.57,1.78-8.35,2.68-.24.08-.48.16-.73.17-5.3.36-10.61.79-15.92,1.02-3.58.16-7.17.16-10.75,0-4.69-.22-9.41-.38-14.04-1.11-3.28-.51-6.39-1.99-9.62-2.88-3-.82-6.11-1.26-9.08-2.16-2.09-.63-4.04-1.73-6.03-2.68-2.95-1.4-5.92-2.78-8.81-4.3-2.77-1.47-5.57-2.94-8.15-4.71-3.67-2.53-7.18-5.31-10.7-8.06-1.4-1.1-2.65-2.39-3.92-3.63-2.58-2.52-5.18-5.02-7.65-7.64-.87-.92-1.3-2.23-2.07-3.26-.47-.63-1.29-.99-1.79-1.59-4.91-5.93-9.06-12.36-12.45-19.28-1.65-3.36-3.62-6.6-4.96-10.08-1.18-3.05-1.68-6.36-2.48-9.56-.36-1.43-.74-2.85-1.1-4.28-1.32-5.14-2.37-10.29-3.18-15.57-.97-6.34-.5-12.58-.61-18.86-.05-2.78,1.09-5.59,1.68-8.38.09-.44.15-.89.23-1.34.6-3.34,1.13-6.7,1.81-10.03.64-3.14,1.16-6.35,2.22-9.35,1.19-3.4,2.92-6.62,4.42-9.92,1.46-3.2,2.89-6.41,4.42-9.57.31-.65,1.13-1.04,1.49-1.67.62-1.1.89-2.42,1.6-3.44,1.16-1.69,2.58-3.2,3.83-4.84,1.1-1.43,2.11-2.93,3.17-4.39,1.01-1.39,1.9-2.91,3.08-4.14,2.7-2.82,5.47-5.58,8.36-8.2,2.47-2.24,5.15-4.24,7.73-6.37,1.91-1.58,3.76-3.22,5.7-4.76.38-.3,1.36-.5,1.49-.32.35.49.68,1.28.53,1.81-1.96,6.71-.7,13.56-.77,20.33-.03,3.07.95,6.32,2.19,9.18,1.76,4.07,4.62,7.68,6.2,11.8,1.52,3.94,4.99,7.22,4.45,11.89-.17,1.5-.75,2.95-.91,4.45-.07.6.4,1.76.76,1.82.89.15,2.05.09,2.77-.39,3.12-2.07,6.19-4.23,9.13-6.53,1.86-1.46,3.72-3.04,5.11-4.92,2.15-2.91,4.67-5.89,5.64-9.25,1.52-5.26,1.45-10.88-3.02-15.08-3.77-3.55-8.07-6.53-11.81-10.11-4.15-3.98-8.28-8.09-11.67-12.69-1.33-1.8-2.82-3.96-3.52-6.36-.78-2.68-.54-3.53,2.15-3.48,4.93.09,8.91,2.9,13.37,4.31,7.75,2.45,14.14,7.3,20.37,12.19,4.66,3.65,8.55,8.28,12.68,12.56.12.13-.77,1.31-1.28,1.93-.32.38-.8.63-1.21.94.52.37,1.09,1.11,1.55,1.05,1.93-.26,3.84-.71,5.74-1.17,2.34-.56,4.71-1.05,6.97-1.83,5.65-1.96,11.46-.9,17.15-.8,4.36.08,8.76,1.24,13.03,2.35,3.36.87,6.56,2.38,9.81,3.67.2.08.36.94.19,1.13-.97,1.09-2.08,2.05-3.05,3.13-.42.46-.87,1.13-.85,1.69.02.84.44,1.67.7,2.5.58-.42,1.18-.82,1.75-1.27,4.45-3.51,8.74-7.24,13.39-10.47,4.82-3.34,9.87-6.41,15.03-9.2,6.02-3.25,12.32-5.95,19.11-7.28.53-.1,1.06-.24,1.59-.31,1-.13,2.01-.22,3.02-.33,0,1.47.27,3-.08,4.38-.89,3.53-2.6,6.59-5.22,9.28-1.89,1.94-2.98,4.63-4.72,6.75-1.43,1.75-3.35,3.1-4.93,4.74-.84.87-1.43,1.98-2.11,2.99-.21.31-.31.71-.57.96-3.9,3.86-4.5,8.81-3.91,13.78.35,2.97,1.09,6.03,3.21,8.64,3.98,4.9,7.58,10.1,11.41,15.12.9,1.18,2.04,2.2,3.15,3.2.35.31,1.07.53,1.45.37.35-.14.53-.83.67-1.31.84-2.86,1.6-5.74,2.47-8.6,1.17-3.86,2.36-7.73,3.66-11.55.91-2.67,2.01-5.28,3.07-7.9.04-.1.83-.07.88.05,1.49,3.83,2.99,7.66,4.37,11.53.81,2.28,1.5,4.62,2.11,6.97.55,2.11,1.14,4.25,1.32,6.4.61,7.08,1.04,14.18,1.54,21.27-.15.01-.3.02-.45.03Zm-83.23,36.03c-.02-.14-.03-.28-.05-.42-4.12.48-8.25.92-12.36,1.46-.84.11-1.62.6-2.43.91.68.75,1.22,1.79,2.06,2.19,7.27,3.41,14.85,5.27,22.99,5.04,2.77-.08,5.65.93,8.36,1.81,3.54,1.15,6.87,3.1,10.46,3.86,1.99.42,4.37-.82,6.52-1.47.37-.11.6-1.02.67-1.59.02-.2-.64-.66-1-.69-5.93-.36-10.68-3.55-15.68-6.26-3.39-1.84-6.91-3.69-10.6-4.69-2.79-.75-5.95-.15-8.95-.15Zm1.75-30.92c4.7,0,7.77-2.87,7.77-7.28,0-4.45-2.97-7.75-7.01-7.75-4.6,0-8.25,2.98-8.26,6.75,0,5.69,2.34,8.28,7.5,8.29Z"/>
  <path class="cls-2" d="m197.69,40.71c-.19.13-.37.25-.56.36-4.81,2.87-9.71,5.61-14.41,8.65-3.1,2.01-5.91,4.46-8.89,6.67-.32.24-.97.38-1.3.22-2.27-1.1-4.38-2.69-6.75-3.38-4.52-1.32-9.15-2.39-13.8-3.11-4.27-.66-8.64-1-12.97-.99-3.97,0-7.94.76-11.91.99-1.05.06-2.45-.29-3.18-.99-4.04-3.9-7.69-8.23-11.93-11.88-3.76-3.23-8.03-5.89-12.22-8.58-3.27-2.11-6.73-3.94-10.15-5.81-1.33-.73-2.79-1.22-4.18-1.82-.25-.11-.48-.26-.72-.39.16-.27.26-.64.49-.79.37-.24.82-.37,1.26-.5,3.44-1.02,6.87-2.08,10.34-3.02,1.82-.5,3.69-.88,5.55-1.16,2.87-.44,5.82-.48,8.63-1.15,8.38-1.99,16.85-.57,25.27-.79,3-.08,6.02,1.11,9.03,1.69,2.15.41,4.32.69,6.45,1.18,2.27.53,4.5,1.25,6.75,1.86,2.04.56,4.19.84,6.11,1.68,3.86,1.68,7.64,3.59,11.38,5.54,4.52,2.35,9.17,4.54,13.36,7.4,3.04,2.08,5.42,5.12,8.09,7.74.09.08.14.2.26.4Z"/>
  <path d="m87.27,164.45c.09.04.15.07.21.1-.08.07-.15.16-.24.2-.04.02-.12-.04-.18-.07.07-.08.14-.16.21-.23Z"/>
  <path class="cls-1" d="m153.84,161.99c3,0,6.15-.6,8.95.15,3.69.99,7.21,2.84,10.6,4.69,4.99,2.72,9.75,5.91,15.68,6.26.37.02,1.03.49,1,.69-.07.57-.3,1.48-.67,1.59-2.15.65-4.53,1.89-6.52,1.47-3.6-.76-6.92-2.71-10.46-3.86-2.71-.88-5.59-1.89-8.36-1.81-8.14.23-15.72-1.63-22.99-5.04-.84-.4-1.38-1.44-2.06-2.19.81-.31,1.6-.8,2.43-.91,4.11-.54,8.24-.98,12.36-1.46.02.14.03.28.05.42Z"/>
  <path class="cls-1" d="m155.59,131.07c-5.16,0-7.51-2.6-7.5-8.29,0-3.77,3.66-6.76,8.26-6.75,4.04,0,7.02,3.3,7.01,7.75,0,4.41-3.07,7.29-7.77,7.28Z"/>
</svg>